<svg width="103" height="48" viewBox="0 0 103 48" fill="none" xmlns="http://www.w3.org/2000/svg">
<path d="M34.1146 31.0356C34.1146 19.134 26.7525 12.0324 16.6956 12.0324C6.31055 12.0324 0 19.7916 0 29.7204C0 40.11 6.44109 48 17.6813 48C25.3069 48 30.9587 44.3832 33.2594 37.02L24.0577 36.3612C22.9403 39.3204 20.7042 40.7676 17.4848 40.7676C12.8834 40.7676 9.92513 37.7436 9.53109 32.6136H34.1146V31.0356ZM17.0237 18.8052C21.2312 18.8052 23.9918 21.5676 24.5176 26.3016H9.46522C9.92513 21.6336 12.8175 18.8052 17.0237 18.8052ZM59.4214 0V16.3068C57.1207 13.4796 53.9001 12.0324 49.561 12.0324C41.8719 12.0324 35.6919 18.6084 35.6919 29.7204C35.6919 40.6356 41.7402 47.934 50.2844 47.934C54.4918 47.934 57.8441 46.158 60.1436 42.6084L60.473 46.8168H68.689V0H59.4214ZM52.2569 39.78C47.7872 39.78 44.6313 35.9676 44.6313 29.7204C44.6313 23.5404 47.7872 19.7256 52.2569 19.7256C56.7267 19.7256 59.8813 23.6052 59.8813 29.7216C59.8813 35.8356 56.7267 39.78 52.2569 39.78ZM73.93 46.8168H83.1977V0H73.93V46.8168ZM96.4248 13.092C100.057 13.092 103 10.1616 103 6.546C103 2.928 100.057 0 96.4248 0C92.7934 0 89.8507 2.928 89.8507 6.546C89.8507 10.1616 92.7934 13.0908 96.426 13.0908L96.4248 13.092ZM96.4248 11.8716C93.4665 11.8716 91.076 9.4908 91.076 6.546C91.076 3.6 93.4665 1.218 96.426 1.218C99.3842 1.218 101.776 3.6 101.776 6.546C101.776 9.4908 99.383 11.8716 96.4248 11.8716ZM94.1995 9.492H95.2594V7.3224H96.9278L98.062 9.4908H99.2453L97.9554 7.0932C98.5471 6.7824 98.9986 6.1692 98.9986 5.3424C98.9986 4.116 98.0213 3.4524 97.1086 3.4524H94.1995V9.492ZM95.2594 6.498V4.2792H96.7889C97.3146 4.2792 97.8488 4.5816 97.8488 5.3424C97.8488 6.0864 97.3218 6.4968 96.7637 6.4968L95.2594 6.498Z" fill="black"/>
</svg>
